# xmcd
#
# Track frame offsets: 
#        150
#        1852
#        22155
#        33428
#        45369
#        59647
#        75147
#        89750
#        111523
#        127825
#        141761
#        165767
#        186990
#        210622
#        248640
#
# Disc length: 3654 seconds
#
# Revision: 0
# Processed by: cddbd v1.5.2PL0 Copyright (c) Steve Scherf et al.
# Submitted via: ExactAudioCopy v0.95b3
#
DISCID=bd0e440f
DTITLE=Old and in the Way - Old and in the Way - live at the Record Pl
DTITLE=ant
DYEAR=1973
DGENRE=Bluegrass
TTITLE0=going to the Races
TTITLE1=The Willow Garden
TTITLE2=Katie Hill
TTITLE3='Til the "end of the world" rolls 'round
TTITLE4=Panama Red
TTITLE5=Hard Hearted
TTITLE6=Soldier's Joy
TTITLE7=Wild Horses
TTITLE8=Lost
TTITLE9=Knockin' on your door
TTITLE10=Lonesome LA Cowboy
TTITLE11=Fanny Hill
TTITLE12=White Dove
TTITLE13=Land of the Navejo
TTITLE14=Blue Mule
EXTD=
EXTT0=
EXTT1=
EXTT2=
EXTT3=
EXTT4=
EXTT5=
EXTT6=
EXTT7=
EXTT8=
EXTT9=
EXTT10=
EXTT11=
EXTT12=
EXTT13=
EXTT14=
PLAYORDER=
